<svg data-name="Слой 1" xmlns="http://www.w3.org/2000/svg" viewBox="0 0 200 200"><path d="M0 0h200v200H0z"/><path d="M41.87 71.2V41.48H29.64V71.2h-7v-36h26.21v36zm29.34-35.99A13.33 13.33 0 0176 36a11.1 11.1 0 013.76 2.33 10.63 10.63 0 012.45 3.54 12 12 0 010 9 10.69 10.69 0 01-2.45 3.54A11.13 11.13 0 0176 56.82a13.3 13.3 0 01-4.8.84h-6.93V71.2h-7v-36zm-.35 16.12A5.38 5.38 0 0074.67 50a4.64 4.64 0 001.42-3.59 4.72 4.72 0 00-1.42-3.61 5.32 5.32 0 00-3.8-1.34h-6.6v9.86zM107 71.2l-2.13-6.37h-12.8l-2.18 6.37h-7.33l13.09-36h5.51l13.14 36zm-8.41-25.38L94 58.92h9zm41.24 6.93a13.52 13.52 0 011.62 1 9.8 9.8 0 011.11 1 8 8 0 011.69 2.78 10.38 10.38 0 01.53 3.44 11.4 11.4 0 01-.76 4.27 8.78 8.78 0 01-2.19 3.24 10 10 0 01-3.48 2.07 13.51 13.51 0 01-4.57.73h-15v-36h14.43a14.13 14.13 0 014.59.71 10.12 10.12 0 013.51 2 8.7 8.7 0 012.18 3.01 10.26 10.26 0 01.78 4.09 8.16 8.16 0 01-4.44 7.66zm-7.2-3a5 5 0 003.43-1.11 4.31 4.31 0 000-6.07 5 5 0 00-3.43-1.11h-6.9v8.29zm.46 15.16a4.85 4.85 0 003.45-1.19 4.24 4.24 0 001.27-3.26 4.16 4.16 0 00-1.27-3.24 4.91 4.91 0 00-3.45-1.16h-7.36v8.85zm44.24-10.39q0 1.77-.07 3.51a23.29 23.29 0 01-.4 3.41 13.6 13.6 0 01-1.06 3.21 11 11 0 01-2 2.91 12.84 12.84 0 01-9.68 3.94 13 13 0 01-9.74-3.94 10.18 10.18 0 01-2-3 17 17 0 01-1.06-3.31 19.42 19.42 0 01-.4-3.39V51.7q0-2.68.15-4.62a18.47 18.47 0 01.56-3.44 10.38 10.38 0 01.96-2.64 11.72 11.72 0 011.74-2.2 13.93 13.93 0 0119.42 0 11.47 11.47 0 012.73 4.7 24.69 24.69 0 01.86 7.13zm-7-2q0-2.22-.07-3.76a18.9 18.9 0 00-.28-2.6 6.76 6.76 0 00-.56-1.77 6.64 6.64 0 00-.86-1.31 5.69 5.69 0 00-4.52-1.92 6.62 6.62 0 00-2.54.48 5.53 5.53 0 00-2 1.44 6.39 6.39 0 00-1.5 3.81 58.14 58.14 0 00-.25 5.81v1.82q0 2.83.23 5.18a5.68 5.68 0 001.5 3.61 6.26 6.26 0 004.57 1.92 5.69 5.69 0 004.52-1.92 5.59 5.59 0 00.93-1.31 6.86 6.86 0 00.53-1.92 28.39 28.39 0 00.26-3q.07-1.8.07-4.53zM68.4 143.73a22.54 22.54 0 01-1.82 9.37 18.79 18.79 0 01-4.95 6.7 20.63 20.63 0 01-7.26 4 28.94 28.94 0 01-8.79 1.31 30 30 0 01-8.53-1.21 20.83 20.83 0 01-7.27-3.79 18.69 18.69 0 01-5.09-6.56 23 23 0 01-2-9.65H35.8a11 11 0 00.9 4.19 8.72 8.72 0 002.12 2.91 8.4 8.4 0 003.08 1.72 12.21 12.21 0 003.68.55 9.72 9.72 0 007-2.58q2.74-2.57 2.73-7.42a9.86 9.86 0 00-2.62-7.22q-2.69-2.65-7.51-2.65h-1.92v-11.31h1.91c3.24 0 5.55-.86 7-2.59a9.84 9.84 0 002.12-6.45q0-4.57-2.62-6.91a9 9 0 00-6.16-2.33 8.45 8.45 0 00-8.88 8.68H23.47a21.15 21.15 0 011.87-8.63 19.56 19.56 0 014.66-6.4 20.54 20.54 0 016.92-4A25.37 25.37 0 0145.48 92a24.81 24.81 0 018.78 1.52 20.76 20.76 0 017 4.25 18.91 18.91 0 014.54 6.52 21.07 21.07 0 011.62 8.34q0 5.86-2.37 9.35a16.81 16.81 0 01-5.91 5.41 18.54 18.54 0 016.56 5.9q2.7 3.88 2.7 10.44zm54.11-.04a22.39 22.39 0 01-1.77 9.14 19.93 19.93 0 01-4.75 6.72 20.16 20.16 0 01-7 4.14 25.41 25.41 0 01-16.71 0 20.75 20.75 0 01-7-4.14 19.49 19.49 0 01-4.8-6.72 22.25 22.25 0 01-1.77-9.14v-30.28a22.29 22.29 0 011.77-9.14 19.48 19.48 0 014.8-6.71 20.83 20.83 0 017-4.14 25.41 25.41 0 0116.71 0 20.24 20.24 0 017 4.14 19.91 19.91 0 014.75 6.71 22.42 22.42 0 011.77 9.14zm-13.13-30.08a10.14 10.14 0 00-2.42-7.17 8.12 8.12 0 00-6.26-2.62 8.3 8.3 0 00-6.31 2.62 10.05 10.05 0 00-2.47 7.17v30a9.86 9.86 0 002.47 7.11 8.38 8.38 0 006.31 2.58 8.19 8.19 0 006.26-2.58 10 10 0 002.42-7.11zm67.95 30.08a22.39 22.39 0 01-1.77 9.14 19.93 19.93 0 01-4.75 6.72 20.16 20.16 0 01-7 4.14 25.41 25.41 0 01-16.71 0 20.75 20.75 0 01-7-4.14 19.49 19.49 0 01-4.8-6.72 22.25 22.25 0 01-1.77-9.14v-30.28a22.29 22.29 0 011.77-9.14 19.48 19.48 0 014.8-6.71 20.83 20.83 0 017-4.14 25.41 25.41 0 0116.71 0 20.24 20.24 0 017 4.14 19.91 19.91 0 014.75 6.71 22.42 22.42 0 011.77 9.14zm-13.13-30.08a10.14 10.14 0 00-2.42-7.17 8.12 8.12 0 00-6.26-2.62 8.3 8.3 0 00-6.31 2.62 10.05 10.05 0 00-2.47 7.17v30a9.86 9.86 0 002.47 7.11 8.38 8.38 0 006.31 2.58 8.19 8.19 0 006.26-2.58 10 10 0 002.42-7.11z" fill="#fff"/></svg>