<svg xmlns="http://www.w3.org/2000/svg"><defs><style>.cls-1{fill:#fff}</style></defs><symbol id="icon-arrow-left" viewBox="0 0 15.02 20"><path d="M15.02 0L0 8.58v2.84L15.02 20v-2.84L2.49 10l12.53-7.16V0z"/></symbol><symbol id="icon-arrow-right" viewBox="0 0 15.02 20"><path class="cls-1" d="M0 20l15.02-8.58V8.58L0 0v2.84L12.54 10 0 17.16V20z"/></symbol><symbol id="logo-rslegal" viewBox="0 0 328.28 80"><path class="cls-1" d="M113.16 17.68c13.11 0 19.45 8.12 19.45 17.34a14.62 14.62 0 01-8.76 13.88c1.73 1.34 3.52 3.77 6.33 8.06l3.52 5.5h-12.22L119 58.62c-3.26-5.05-3.84-6.14-8-6.27h-2.7v10.11H97.42V17.68zm-4.86 24.37h5.89c4.67 0 8.12-2.18 8.12-7 0-4.61-3.45-7.1-8.12-7.1h-5.89zm48.12-24.82c6.27 0 12.79 3.13 17.85 7.42l-7.1 6.53c-3.45-2.11-8.32-3.71-10.75-3.71H156c-2 0-6.33.38-6.33 3.58 0 2.43 3.58 2.82 6.4 3.14l2.88.26c9.21 1 16.63 4.48 16.63 14.27 0 8.76-7.42 14.07-17.91 14.2h-.32a25.87 25.87 0 01-19.51-8.64l7.1-6.52a18.17 18.17 0 0012.41 4.93h.32c4.61-.06 7-1.53 7-4 0-3.2-3.65-3.71-7.23-4.16l-2.94-.32c-8.32-.9-15.74-4.35-15.74-12.86 0-8.7 7.42-14 17.21-14.14zm27.84 45.23V17.68h3.07v41.9h24.31v2.88zm57.94-22.71a13.71 13.71 0 01.64 7.23h-28.53c0 8.25 5.76 13.18 14 13.24a18.7 18.7 0 0011.77-4l1.67 1.78a20.84 20.84 0 01-13.43 4.86c-10-.06-17-6.53-17-16.38.04-9.1 6.68-16.48 16.36-16.48a15 15 0 0114.52 9.75zm-27.7 5.12h25.78a11.19 11.19 0 00-.7-4.29 12.13 12.13 0 00-11.84-7.87 12.82 12.82 0 00-13.24 12.16zm63.86-6.02l.13-8.38h2.24v28c0 9.85-5.18 16.12-15.29 16.18a20.8 20.8 0 01-13.5-4.86l1.73-1.79a18.33 18.33 0 0011.77 4c8.32 0 12.35-4.73 12.35-13v-4.8a14.79 14.79 0 01-13.5 8.44 16.28 16.28 0 010-32.56 15.51 15.51 0 0114.07 8.77zM251 46.34a13.5 13.5 0 1013.5-13.56A13.42 13.42 0 00251 46.34zm65.83 16.12l-.13-8.51a15.55 15.55 0 01-14.14 8.89 16.41 16.41 0 010-32.82 15.5 15.5 0 0114.14 9l.13-8.51h2.24v32zm-.51-16a13.5 13.5 0 10-13.5 13.63 13.54 13.54 0 0013.5-13.62zM327 17.68h2.94v44.78H327z"/><path fill="#c0534c" d="M0 32.09v15.97L55.9 80V32.09l-13.69 7.98v16.12L0 32.09z"/><path fill="#e29694" d="M42.21 40.07l-14.12-8.13L69.88 7.99 55.76 0 0 32.09l42.21 24.1V40.07z"/><path fill="#86211a" d="M28.09 31.94l14.12 8.13 13.69-7.98V80l13.98-7.84V7.99L28.09 31.94z"/></symbol></svg>